<svg xmlns="http://www.w3.org/2000/svg" width="560" height="560" viewBox="0 0 560 560"><rect width="560" height="560" fill="#f2f2f2"/><rect x="34" y="34" width="492" height="330" rx="22" fill="#fff" stroke="#d5ded5" stroke-width="2"/><g stroke="#555a5f" stroke-width="4" stroke-linecap="round"><line x1="90" y1="95" x2="90" y2="330"/><line x1="150" y1="95" x2="150" y2="330"/><line x1="210" y1="95" x2="210" y2="330"/><line x1="270" y1="95" x2="270" y2="330"/><line x1="330" y1="95" x2="330" y2="330"/><line x1="390" y1="95" x2="390" y2="330"/><line x1="450" y1="95" x2="450" y2="330"/><line x1="65" y1="120" x2="495" y2="120"/><line x1="65" y1="185" x2="495" y2="185"/><line x1="65" y1="250" x2="495" y2="250"/><line x1="65" y1="315" x2="495" y2="315"/></g><rect x="34" y="398" width="492" height="128" rx="24" fill="#fff" stroke="#cdd8cd" stroke-width="2"/><rect x="52" y="418" width="130" height="80" rx="18" fill="#3ca04b"/><text x="77" y="468" font-family="Arial, sans-serif" font-size="38" font-weight="700" fill="#fff">4 mm</text><text x="205" y="450" font-family="Arial, sans-serif" font-size="28" font-weight="700" fill="#24272a">Hrúbka drôtu</text><text x="205" y="482" font-family="Arial, sans-serif" font-size="18" fill="#666">štandardná varianta pre bežné ploty</text></svg>