<svg xmlns="http://www.w3.org/2000/svg" width="560" height="560" viewBox="0 0 560 560"><rect width="560" height="560" fill="#f2f2f2"/><rect x="28" y="24" width="504" height="54" rx="18" fill="#fff" stroke="#d5ded5" stroke-width="2"/><text x="46" y="59" font-family="Arial, sans-serif" font-size="28" font-weight="700" fill="#24272a">Betónovanie do zeme</text><text x="42" y="106" font-family="Arial, sans-serif" font-size="19" fill="#666">Stĺpik osadený do betónovej pätky</text><g stroke="#5b5b5b" stroke-width="6" stroke-linecap="round"><line x1="235" y1="140" x2="500" y2="140"/><line x1="235" y1="210" x2="500" y2="210"/><line x1="235" y1="280" x2="500" y2="280"/><line x1="235" y1="350" x2="500" y2="350"/><line x1="245" y1="125" x2="245" y2="405"/><line x1="290" y1="125" x2="290" y2="405"/><line x1="335" y1="125" x2="335" y2="405"/><line x1="380" y1="125" x2="380" y2="405"/><line x1="425" y1="125" x2="425" y2="405"/><line x1="470" y1="125" x2="470" y2="405"/></g><rect x="168" y="92" width="42" height="318" rx="12" fill="#666"/><rect x="150" y="358" width="78" height="108" rx="12" fill="#bcbcbc" stroke="#8c8c8c" stroke-width="2"/><rect x="0" y="432" width="560" height="28" fill="#77b35d"/><rect x="0" y="460" width="560" height="100" fill="#c4aa82"/></svg>